<mxfile host="app.diagrams.net" agent="Mozilla/5.0 (X11; Linux x86_64) AppleWebKit/537.36 (KHTML, like Gecko) Chrome/137.0.0.0 Safari/537.36" version="27.1.6">
  <diagram name="Page-1" id="ktACwbOKi-mWsqmQaltT">
    <mxGraphModel dx="1426" dy="860" grid="1" gridSize="10" guides="1" tooltips="1" connect="1" arrows="1" fold="1" page="1" pageScale="1" pageWidth="850" pageHeight="1100" math="0" shadow="0">
      <root>
        <mxCell id="0" />
        <mxCell id="1" parent="0" />
        <mxCell id="S_KXjdcvC7rD8xJScLVP-6" value="" style="rounded=1;whiteSpace=wrap;html=1;fillColor=none;strokeColor=light-dark(#000000,#FF8000);" vertex="1" parent="1">
          <mxGeometry x="170" y="470" width="150" height="170" as="geometry" />
        </mxCell>
        <mxCell id="S_KXjdcvC7rD8xJScLVP-1" value="" style="points=[];aspect=fixed;html=1;align=center;shadow=0;dashed=0;fillColor=#FF6A00;strokeColor=none;shape=mxgraph.alibaba_cloud.user;" vertex="1" parent="1">
          <mxGeometry x="380" y="210" width="60" height="60" as="geometry" />
        </mxCell>
        <mxCell id="S_KXjdcvC7rD8xJScLVP-2" value="" style="sketch=0;outlineConnect=0;fontColor=#232F3E;gradientColor=none;fillColor=#8C4FFF;strokeColor=none;dashed=0;verticalLabelPosition=bottom;verticalAlign=top;align=center;html=1;fontSize=12;fontStyle=0;aspect=fixed;pointerEvents=1;shape=mxgraph.aws4.application_load_balancer;" vertex="1" parent="1">
          <mxGeometry x="380" y="350" width="60" height="60" as="geometry" />
        </mxCell>
        <mxCell id="S_KXjdcvC7rD8xJScLVP-3" value="" style="sketch=0;outlineConnect=0;fontColor=#232F3E;gradientColor=none;fillColor=light-dark(#232F3D,#FF8000);strokeColor=none;dashed=0;verticalLabelPosition=bottom;verticalAlign=top;align=center;html=1;fontSize=12;fontStyle=0;aspect=fixed;pointerEvents=1;shape=mxgraph.aws4.servers;" vertex="1" parent="1">
          <mxGeometry x="220" y="490" width="49" height="49" as="geometry" />
        </mxCell>
        <mxCell id="S_KXjdcvC7rD8xJScLVP-4" value="" style="sketch=0;outlineConnect=0;fontColor=#232F3E;gradientColor=none;fillColor=light-dark(#232F3D,#FF8000);strokeColor=none;dashed=0;verticalLabelPosition=bottom;verticalAlign=top;align=center;html=1;fontSize=12;fontStyle=0;aspect=fixed;pointerEvents=1;shape=mxgraph.aws4.servers;" vertex="1" parent="1">
          <mxGeometry x="260" y="550" width="49" height="49" as="geometry" />
        </mxCell>
        <mxCell id="S_KXjdcvC7rD8xJScLVP-5" value="" style="sketch=0;outlineConnect=0;fontColor=#232F3E;gradientColor=none;fillColor=light-dark(#232F3D,#FF8000);strokeColor=none;dashed=0;verticalLabelPosition=bottom;verticalAlign=top;align=center;html=1;fontSize=12;fontStyle=0;aspect=fixed;pointerEvents=1;shape=mxgraph.aws4.servers;" vertex="1" parent="1">
          <mxGeometry x="180" y="550" width="49" height="49" as="geometry" />
        </mxCell>
        <mxCell id="S_KXjdcvC7rD8xJScLVP-7" value="&lt;b&gt;&lt;font style=&quot;color: light-dark(rgb(0, 0, 0), rgb(255, 128, 0));&quot;&gt;v1.0&lt;/font&gt;&lt;/b&gt;" style="text;html=1;align=center;verticalAlign=middle;resizable=0;points=[];autosize=1;strokeColor=none;fillColor=none;" vertex="1" parent="1">
          <mxGeometry x="219" y="610" width="50" height="30" as="geometry" />
        </mxCell>
        <mxCell id="S_KXjdcvC7rD8xJScLVP-15" value="" style="endArrow=classic;html=1;rounded=0;exitX=0.483;exitY=0.933;exitDx=0;exitDy=0;exitPerimeter=0;strokeColor=light-dark(#000000,#FF8000);" edge="1" parent="1" source="S_KXjdcvC7rD8xJScLVP-1" target="S_KXjdcvC7rD8xJScLVP-2">
          <mxGeometry width="50" height="50" relative="1" as="geometry">
            <mxPoint x="400" y="470" as="sourcePoint" />
            <mxPoint x="450" y="420" as="targetPoint" />
          </mxGeometry>
        </mxCell>
        <mxCell id="S_KXjdcvC7rD8xJScLVP-16" value="" style="endArrow=classic;html=1;rounded=0;entryX=0.5;entryY=0;entryDx=0;entryDy=0;strokeColor=light-dark(#000000,#FF8000);" edge="1" parent="1" source="S_KXjdcvC7rD8xJScLVP-2">
          <mxGeometry width="50" height="50" relative="1" as="geometry">
            <mxPoint x="400" y="470" as="sourcePoint" />
            <mxPoint x="580" y="465" as="targetPoint" />
          </mxGeometry>
        </mxCell>
        <mxCell id="S_KXjdcvC7rD8xJScLVP-17" value="" style="endArrow=classic;html=1;rounded=0;entryX=0.5;entryY=0;entryDx=0;entryDy=0;strokeColor=light-dark(#000000,#FF8000);" edge="1" parent="1" source="S_KXjdcvC7rD8xJScLVP-2" target="S_KXjdcvC7rD8xJScLVP-6">
          <mxGeometry width="50" height="50" relative="1" as="geometry">
            <mxPoint x="400" y="470" as="sourcePoint" />
            <mxPoint x="240" y="440" as="targetPoint" />
          </mxGeometry>
        </mxCell>
        <mxCell id="S_KXjdcvC7rD8xJScLVP-18" value="&lt;b&gt;&lt;font style=&quot;color: light-dark(rgb(0, 0, 0), rgb(255, 128, 0));&quot;&gt;Before deployment&lt;/font&gt;&lt;/b&gt;" style="text;html=1;align=center;verticalAlign=middle;resizable=0;points=[];autosize=1;strokeColor=none;fillColor=none;" vertex="1" parent="1">
          <mxGeometry x="215" y="388" width="130" height="30" as="geometry" />
        </mxCell>
        <mxCell id="S_KXjdcvC7rD8xJScLVP-19" value="&lt;b&gt;&lt;font style=&quot;color: light-dark(rgb(0, 0, 0), rgb(255, 128, 0));&quot;&gt;After Deployment&lt;/font&gt;&lt;/b&gt;" style="text;html=1;align=center;verticalAlign=middle;resizable=0;points=[];autosize=1;strokeColor=none;fillColor=none;" vertex="1" parent="1">
          <mxGeometry x="470" y="378" width="120" height="30" as="geometry" />
        </mxCell>
        <mxCell id="S_KXjdcvC7rD8xJScLVP-20" value="" style="rounded=1;whiteSpace=wrap;html=1;fillColor=none;strokeColor=light-dark(#000000,#FF8000);" vertex="1" parent="1">
          <mxGeometry x="500" y="465" width="150" height="175" as="geometry" />
        </mxCell>
        <mxCell id="S_KXjdcvC7rD8xJScLVP-21" value="" style="sketch=0;outlineConnect=0;fontColor=#232F3E;gradientColor=none;fillColor=light-dark(#232F3D,#FF8000);strokeColor=none;dashed=0;verticalLabelPosition=bottom;verticalAlign=top;align=center;html=1;fontSize=12;fontStyle=0;aspect=fixed;pointerEvents=1;shape=mxgraph.aws4.servers;" vertex="1" parent="1">
          <mxGeometry x="550" y="485" width="49" height="49" as="geometry" />
        </mxCell>
        <mxCell id="S_KXjdcvC7rD8xJScLVP-22" value="" style="sketch=0;outlineConnect=0;fontColor=#232F3E;gradientColor=none;fillColor=light-dark(#232F3D,#FF8000);strokeColor=none;dashed=0;verticalLabelPosition=bottom;verticalAlign=top;align=center;html=1;fontSize=12;fontStyle=0;aspect=fixed;pointerEvents=1;shape=mxgraph.aws4.servers;" vertex="1" parent="1">
          <mxGeometry x="590" y="545" width="49" height="49" as="geometry" />
        </mxCell>
        <mxCell id="S_KXjdcvC7rD8xJScLVP-23" value="" style="sketch=0;outlineConnect=0;fontColor=#232F3E;gradientColor=none;fillColor=light-dark(#232F3D,#FF8000);strokeColor=none;dashed=0;verticalLabelPosition=bottom;verticalAlign=top;align=center;html=1;fontSize=12;fontStyle=0;aspect=fixed;pointerEvents=1;shape=mxgraph.aws4.servers;" vertex="1" parent="1">
          <mxGeometry x="510" y="545" width="49" height="49" as="geometry" />
        </mxCell>
        <mxCell id="S_KXjdcvC7rD8xJScLVP-24" value="&lt;b&gt;&lt;font style=&quot;color: light-dark(rgb(0, 0, 0), rgb(255, 128, 0));&quot;&gt;v2.0&lt;/font&gt;&lt;/b&gt;" style="text;html=1;align=center;verticalAlign=middle;resizable=0;points=[];autosize=1;strokeColor=none;fillColor=none;" vertex="1" parent="1">
          <mxGeometry x="549" y="605" width="50" height="30" as="geometry" />
        </mxCell>
      </root>
    </mxGraphModel>
  </diagram>
</mxfile>
